<?xml version="1.0"?>
<svg xmlns="http://www.w3.org/2000/svg" xmlns:xlink="http://www.w3.org/1999/xlink" width="512" height="512" viewBox="0 0 128 128"><defs><linearGradient id="a" x1="112.757" y1="120.348" x2="0.058" y2="7.649" gradientUnits="userSpaceOnUse"><stop offset="0" stop-color="#979fef"/><stop offset="1" stop-color="#ff8fb8"/></linearGradient></defs><path d="M0,86.875V79a1.75,1.75,0,0,1,3.5,0v7.875a1.75,1.75,0,0,1-3.5,0ZM128,23.62v80.76a1.75,1.75,0,0,1-1.75,1.75H32.5v3.12A6.756,6.756,0,0,1,25.816,116v10.25a1.751,1.751,0,0,1-1.75,1.75H8.434a1.751,1.751,0,0,1-1.75-1.75V116A6.756,6.756,0,0,1,0,109.25V99.125a1.75,1.75,0,0,1,3.5,0V109.25a3.254,3.254,0,0,0,3.25,3.25H8.376c.02,0,.038-.006.058-.006h.614a22.615,22.615,0,0,1,2.61-4.172c1.3-1.73,1.842-2.446,1.842-4.506s-.54-2.775-1.843-4.506a17.777,17.777,0,0,1,0-22.85c1.3-1.73,1.842-2.445,1.842-4.5s-.54-2.774-1.842-4.5a17.771,17.771,0,0,1,0-22.847c1.3-1.728,1.842-2.444,1.842-4.5s-.539-2.774-1.842-4.5A17.442,17.442,0,0,1,7.5,24.177,16.6,16.6,0,0,1,9.777,15.5H6.75A3.254,3.254,0,0,0,3.5,18.75v48a1.75,1.75,0,0,1-3.5,0v-48A6.756,6.756,0,0,1,6.684,12V1.747A1.751,1.751,0,0,1,8.434,0H24.066a1.751,1.751,0,0,1,1.75,1.75V12A6.756,6.756,0,0,1,32.5,18.75v3.12h93.75A1.75,1.75,0,0,1,128,23.62ZM73,87.89c0,2.056.54,2.769,1.846,4.494a17.668,17.668,0,0,1,4.116,10.246h8.951a7.007,7.007,0,0,0-1.759-3.314,17.786,17.786,0,0,1-.008-22.839C87.464,74.726,88,74.012,88,71.96s-.535-2.764-1.829-4.483a17.776,17.776,0,0,1-.008-22.872C87.47,42.857,88,42.148,88,40.1s-.536-2.765-1.833-4.49a17.512,17.512,0,0,1-4.13-10.24h-8.95a7.052,7.052,0,0,0,1.746,3.3,17.761,17.761,0,0,1,0,22.856C73.534,53.267,73,53.982,73,56.03s.54,2.769,1.846,4.494a17.8,17.8,0,0,1,.011,22.846l-.011.016C73.54,85.111,73,85.824,73,87.89ZM52.587,25.37a7.064,7.064,0,0,0,1.744,3.3,17.756,17.756,0,0,1,0,22.856c-1.3,1.743-1.836,2.457-1.836,4.505s.536,2.765,1.831,4.489a17.77,17.77,0,0,1,.007,22.864l-.007.008c-1.3,1.724-1.831,2.438-1.831,4.5s.536,2.765,1.831,4.489a17.589,17.589,0,0,1,4.131,10.251h8.951a7.007,7.007,0,0,0-1.759-3.314,17.786,17.786,0,0,1-.008-22.839c1.318-1.751,1.854-2.465,1.854-4.517s-.535-2.764-1.829-4.483a17.776,17.776,0,0,1-.008-22.872c1.307-1.748,1.837-2.457,1.837-4.5s-.536-2.765-1.833-4.49a17.505,17.505,0,0,1-4.13-10.24ZM10.184,12H22.316V3.5H10.184Zm2.827,100.494h5.516a13.49,13.49,0,0,0,2.973-8.678A14,14,0,0,0,18.047,94.5c-1.423-1.889-2.547-3.381-2.547-6.612s1.124-4.721,2.547-6.611a14.3,14.3,0,0,0,0-18.636c-1.423-1.89-2.547-3.381-2.547-6.611s1.123-4.718,2.546-6.606a14.293,14.293,0,0,0,0-18.633C16.624,28.9,15.5,27.406,15.5,24.177s1.124-4.719,2.547-6.608c.43-.571.947-1.256,1.444-2.069H13.975A13.507,13.507,0,0,0,11,24.177a14,14,0,0,0,3.453,9.318C15.876,35.384,17,36.876,17,40.1s-1.124,4.718-2.546,6.606a14.295,14.295,0,0,0,0,18.634C15.876,67.235,17,68.727,17,71.956s-1.124,4.721-2.547,6.61a14.3,14.3,0,0,0,0,18.638c1.424,1.89,2.548,3.382,2.548,6.612s-1.124,4.723-2.546,6.612C14.024,111,13.508,111.683,13.011,112.494Zm9.305,12V116H10.184v8.5ZM29,104.38V18.75a3.254,3.254,0,0,0-3.25-3.25h-2.3a22.513,22.513,0,0,1-2.611,4.175C19.539,21.4,19,22.12,19,24.177s.54,2.774,1.842,4.5a17.768,17.768,0,0,1,0,22.845c-1.3,1.729-1.842,2.445-1.842,4.5s.54,2.775,1.842,4.5a17.773,17.773,0,0,1,0,22.848C19.54,85.11,19,85.826,19,87.885s.54,2.776,1.843,4.506A17.448,17.448,0,0,1,25,103.816a16.609,16.609,0,0,1-2.276,8.678h1.342c.02,0,.038,0,.058.006H25.75A3.254,3.254,0,0,0,29,109.25Zm3.5-1.75H46.913a7.007,7.007,0,0,0-1.759-3.314,17.785,17.785,0,0,1-.006-22.84C46.464,74.725,47,74.011,47,71.96s-.53-2.757-1.811-4.471a17.762,17.762,0,0,1-.025-22.884C46.47,42.856,47,42.148,47,40.1s-.536-2.765-1.832-4.489A17.506,17.506,0,0,1,41.037,25.37H32.5Zm22.457,0A14.159,14.159,0,0,0,51.546,94.5C50.118,92.6,49,91.109,49,87.89s1.118-4.717,2.534-6.6l.01-.014a14.294,14.294,0,0,0,0-18.638C50.118,60.737,49,59.249,49,56.03s1.112-4.7,2.521-6.585A14.283,14.283,0,0,0,51.555,30.8c-1.247-1.66-2.254-3-2.5-5.43H44.542a14.08,14.08,0,0,0,3.414,8.125c1.426,1.9,2.544,3.385,2.544,6.605s-1.106,4.691-2.506,6.565a14.29,14.29,0,0,0-.038,18.68c1.438,1.923,2.544,3.4,2.544,6.615s-1.118,4.708-2.534,6.592A14.311,14.311,0,0,0,47.94,97.2a9.8,9.8,0,0,1,2.5,5.433Zm20.5,0a14.2,14.2,0,0,0-3.389-8.114c-1.441-1.906-2.569-3.4-2.569-6.626s1.127-4.729,2.553-6.614l.007-.008a14.321,14.321,0,0,0,.008-18.613c-1.44-1.9-2.568-3.394-2.568-6.625,0-3.211,1.113-4.7,2.522-6.586A14.285,14.285,0,0,0,72.057,30.8c-1.248-1.66-2.256-3-2.5-5.431H65.042a14.083,14.083,0,0,0,3.414,8.125C69.882,35.392,71,36.88,71,40.1s-1.106,4.692-2.507,6.566a14.3,14.3,0,0,0-.053,18.671c1.442,1.915,2.56,3.4,2.56,6.623s-1.119,4.709-2.535,6.593A14.311,14.311,0,0,0,68.44,97.2a9.792,9.792,0,0,1,2.5,5.433Zm20.5,0a14.2,14.2,0,0,0-3.389-8.114C91.128,92.61,90,91.121,90,87.89s1.127-4.729,2.553-6.614l.007-.008a14.321,14.321,0,0,0,.008-18.613C91.128,60.751,90,59.261,90,56.03c0-3.211,1.113-4.7,2.522-6.586A14.285,14.285,0,0,0,92.557,30.8c-1.248-1.66-2.256-3-2.5-5.431H85.542a14.083,14.083,0,0,0,3.414,8.125c1.426,1.9,2.544,3.385,2.544,6.605s-1.106,4.692-2.507,6.566a14.3,14.3,0,0,0-.053,18.671c1.442,1.915,2.56,3.4,2.56,6.623s-1.119,4.709-2.535,6.593A14.311,14.311,0,0,0,88.94,97.2a9.792,9.792,0,0,1,2.5,5.433Zm20.5,0a14.2,14.2,0,0,0-3.389-8.114c-1.441-1.906-2.569-3.4-2.569-6.626s1.128-4.73,2.555-6.616a14.322,14.322,0,0,0,.013-18.619c-1.44-1.9-2.568-3.394-2.568-6.625,0-3.211,1.113-4.7,2.522-6.586a14.285,14.285,0,0,0,.035-18.643c-1.248-1.66-2.256-3-2.5-5.431h-4.515a14.083,14.083,0,0,0,3.414,8.125C110.882,35.392,112,36.88,112,40.1s-1.106,4.692-2.507,6.566a1.774,1.774,0,0,1-2.466.375,1.728,1.728,0,0,1-.369-2.428l.031-.043c1.281-1.713,1.811-2.422,1.811-4.47s-.536-2.765-1.833-4.49a17.512,17.512,0,0,1-4.13-10.24h-8.95a7.052,7.052,0,0,0,1.746,3.3,17.761,17.761,0,0,1,0,22.856c-1.3,1.742-1.837,2.457-1.837,4.505s.54,2.769,1.846,4.494a17.8,17.8,0,0,1,.011,22.846l-.011.016c-1.306,1.725-1.846,2.438-1.846,4.5s.54,2.769,1.846,4.494a17.668,17.668,0,0,1,4.116,10.246h8.951a7.007,7.007,0,0,0-1.759-3.314,17.786,17.786,0,0,1-.008-22.839c1.318-1.751,1.854-2.465,1.854-4.517s-.535-2.764-1.829-4.483A17.5,17.5,0,0,1,102.5,56.03a1.75,1.75,0,0,1,3.5,0,14.006,14.006,0,0,0,3.44,9.307c1.442,1.915,2.56,3.4,2.56,6.623s-1.119,4.709-2.535,6.593A14.311,14.311,0,0,0,109.44,97.2a9.792,9.792,0,0,1,2.5,5.433ZM124.5,25.37H114.087a7.052,7.052,0,0,0,1.746,3.3,17.761,17.761,0,0,1,0,22.856c-1.3,1.742-1.837,2.457-1.837,4.505s.54,2.769,1.846,4.494a17.8,17.8,0,0,1,.011,22.846C114.54,85.111,114,85.824,114,87.89s.54,2.769,1.846,4.494a17.668,17.668,0,0,1,4.116,10.246H124.5Z" fill="url(#a)"/></svg>
