<svg height="512" viewBox="0 0 128 128" width="512" xmlns="http://www.w3.org/2000/svg"><g><g><path d="m29.408 70.369a1.75 1.75 0 0 1 -1.75-1.75v-9.219a1.75 1.75 0 0 1 3.5 0v9.22a1.75 1.75 0 0 1 -1.75 1.749z" fill="#babac0"/><path d="m120.658 126.247h-113.316a5.592 5.592 0 0 1 -5.592-5.592 5.592 5.592 0 0 1 5.592-5.592h113.316a5.592 5.592 0 0 1 5.592 5.592 5.592 5.592 0 0 1 -5.592 5.592z" fill="#704c55"/><path d="m113.75 115.063h-99.5v-19.684a6 6 0 0 1 6-6h93.5z" fill="#ff8fb8"/><path d="m13.983 29.941v14.679a5 5 0 0 0 5 5h20.534a5 5 0 0 0 5-5 9.2 9.2 0 0 1 9.2-9.195h15.304a14.2 14.2 0 0 1 14.195 14.2v39.754h30.534v-59.438a14.2 14.2 0 0 0 -14.195-14.195h-71.377a14.2 14.2 0 0 0 -14.195 14.195z" fill="#fed843"/><path d="m29.408 59.4h-.316a9.78 9.78 0 0 1 -9.78-9.779h19.875a9.779 9.779 0 0 1 -9.779 9.779z" fill="#ececf1"/><path d="m120.25 76.5h-6.5v-40.074h6.5a6 6 0 0 1 6 6v28.074a6 6 0 0 1 -6 6z" fill="#fabe2c"/><g fill="#ececf1"><path d="m103.75 63.252h-10.534a1.75 1.75 0 0 1 0-3.5h10.534a1.75 1.75 0 0 1 0 3.5z"/><path d="m103.75 54.313h-10.534a1.75 1.75 0 0 1 0-3.5h10.534a1.75 1.75 0 0 1 0 3.5z"/><path d="m103.75 45.373h-10.534a1.75 1.75 0 0 1 0-3.5h10.534a1.75 1.75 0 0 1 0 3.5z"/><path d="m103.75 36.435h-10.534a1.75 1.75 0 0 1 0-3.5h10.534a1.75 1.75 0 0 1 0 3.5z"/></g><path d="m99.281 79.379h-1.6a4.469 4.469 0 0 1 -4.469-4.47 4.469 4.469 0 0 1 4.469-4.469h1.6a4.469 4.469 0 0 1 4.469 4.469 4.469 4.469 0 0 1 -4.469 4.47z" fill="#704c55"/><path d="m99.555 15.746a14.209 14.209 0 0 1 4.164.623v-9.65a4.969 4.969 0 1 0 -9.938 0v9.027z" fill="#704c55"/><path d="m28.178 15.746h6.041v-9.027a4.969 4.969 0 0 0 -9.938 0v9.581a14.163 14.163 0 0 1 3.897-.554z" fill="#704c55"/></g><g><path d="m54.312 17.5h3.938a1.75 1.75 0 1 0 0-3.5h-3.938a1.75 1.75 0 0 0 0 3.5z"/><path d="m115.5 78.25h4.75a7.759 7.759 0 0 0 7.75-7.75v-28.074a7.759 7.759 0 0 0 -7.75-7.75h-4.75v-4.735a15.96 15.96 0 0 0 -10.031-14.795v-8.427a6.719 6.719 0 1 0 -13.438 0v7.281h-22.719a1.75 1.75 0 0 0 0 3.5h30.243a12.459 12.459 0 0 1 12.445 12.441v57.688h-27.034v-38.009a15.964 15.964 0 0 0 -15.946-15.945h-15.308a10.958 10.958 0 0 0 -10.945 10.945 3.254 3.254 0 0 1 -3.25 3.25h-20.534a3.254 3.254 0 0 1 -3.25-3.25v-14.679a12.46 12.46 0 0 1 12.446-12.441h15.071a1.75 1.75 0 1 0 0-3.5h-7.281v-7.281a6.719 6.719 0 1 0 -13.438 0v8.329a15.958 15.958 0 0 0 -10.3 14.893v14.679a6.76 6.76 0 0 0 5.457 6.623 11.54 11.54 0 0 0 9.968 9.808v7.568a1.75 1.75 0 0 0 3.5 0v-7.619a11.537 11.537 0 0 0 9.652-9.759 6.76 6.76 0 0 0 5.457-6.623 7.453 7.453 0 0 1 7.445-7.445h15.31a12.46 12.46 0 0 1 12.446 12.447v38.009h-57.4a1.75 1.75 0 1 0 0 3.5h87.934v22.184h-96v-17.934a1.75 1.75 0 0 0 -3.5 0v17.934h-5.157a7.342 7.342 0 1 0 0 14.684h113.314a7.342 7.342 0 1 0 0-14.684h-5.157zm-19.969-64.25v-7.281a3.219 3.219 0 1 1 6.438 0v7.481a15.893 15.893 0 0 0 -2.414-.2zm-69.5-7.277a3.219 3.219 0 0 1 6.438 0v7.277h-4.29a16.015 16.015 0 0 0 -2.148.162zm3.377 50.93h-.316a8.044 8.044 0 0 1 -7.837-6.279h15.99a8.044 8.044 0 0 1 -7.837 6.275zm95.092 63.002a3.847 3.847 0 0 1 -3.843 3.842h-113.314a3.842 3.842 0 1 1 0-7.684h113.314a3.847 3.847 0 0 1 3.843 3.842zm-4.25-82.479a4.255 4.255 0 0 1 4.25 4.25v28.074a4.255 4.255 0 0 1 -4.25 4.25h-4.75v-36.574z"/><path d="m93.216 63.252h10.534a1.75 1.75 0 0 0 0-3.5h-10.534a1.75 1.75 0 0 0 0 3.5z"/><path d="m93.216 54.313h10.534a1.75 1.75 0 0 0 0-3.5h-10.534a1.75 1.75 0 0 0 0 3.5z"/><path d="m93.216 45.373h10.534a1.75 1.75 0 0 0 0-3.5h-10.534a1.75 1.75 0 0 0 0 3.5z"/><path d="m93.216 36.435h10.534a1.75 1.75 0 0 0 0-3.5h-10.534a1.75 1.75 0 0 0 0 3.5z"/><path d="m97.685 81.129h1.595a6.22 6.22 0 1 0 0-12.439h-1.595a6.22 6.22 0 0 0 0 12.439zm0-8.939h1.595a2.72 2.72 0 1 1 0 5.439h-1.595a2.72 2.72 0 0 1 0-5.439z"/></g></g></svg>